<svg viewBox="0 -3 480 479" xmlns="http://www.w3.org/2000/svg"><path d="m208 232.5v-38.230469c7.417969-6.636719 9.972656-17.15625 6.421875-26.453125s-12.472656-15.4375-22.421875-15.4375-18.871094 6.140625-22.421875 15.4375-.996094 19.816406 6.421875 26.453125v38.230469zm0 0" fill="#8a8a8a"/><path d="m408 416.5c0 13.253906-10.746094 24-24 24s-24-10.746094-24-24 10.746094-24 24-24 24 10.746094 24 24zm0 0" fill="#7cd7fc"/><path d="m56 440.5c0 13.253906-10.746094 24-24 24s-24-10.746094-24-24 10.746094-24 24-24 24 10.746094 24 24zm0 0" fill="#7cd7fc"/><path d="m432 320.5c0 13.253906-10.746094 24-24 24s-24-10.746094-24-24 10.746094-24 24-24 24 10.746094 24 24zm0 0" fill="#7cd7fc"/><path d="m256 368.5c0 13.253906-10.746094 24-24 24s-24-10.746094-24-24 10.746094-24 24-24 24 10.746094 24 24zm0 0" fill="#7cd7fc"/><path d="m272 120.5h-24v-40c0-17.671875-14.328125-32-32-32h-48c-17.671875 0-32 14.328125-32 32v40h-24c-4.417969 0-8 3.582031-8 8v128c0 4.417969 3.582031 8 8 8h160c4.417969 0 8-3.582031 8-8v-128c0-4.417969-3.582031-8-8-8zm-64 73.769531v38.230469h-32v-38.230469c-7.417969-6.636719-9.972656-17.15625-6.421875-26.453125s12.472656-15.4375 22.421875-15.4375 18.871094 6.140625 22.421875 15.4375.996094 19.816406-6.421875 26.453125zm8-73.769531h-48v-32c0-4.417969 3.582031-8 8-8h32c4.417969 0 8 3.582031 8 8zm0 0" fill="#f9e369"/><path d="m320 264.5c27.78125-.027344 51.34375-20.421875 55.355469-47.914062 4.011719-27.492188-12.738281-53.765626-39.355469-61.734376v-50.351562h24v-32h-24v-32h16v-24h-16v-16h-32v154.351562c-18.804688 5.59375-33.304688 20.628907-38.214844 39.621094-4.914062 18.992188.480469 39.171875 14.214844 53.179688 10.515625 10.78125 24.941406 16.859375 40 16.847656zm0-80c13.253906 0 24 10.746094 24 24s-10.746094 24-24 24-24-10.746094-24-24 10.746094-24 24-24zm0 0" fill="#7cd7fc"/><g fill="#39a6d9"><path d="m88 339.554688-59.574219 29.785156c-2.714843 1.355468-4.425781 4.128906-4.425781 7.160156v33.136719c-15.601562 4.027343-25.777344 19.03125-23.746094 35.015625s15.632813 27.96875 31.746094 27.96875 29.714844-11.984375 31.746094-27.96875-8.144532-30.988282-23.746094-35.015625v-28.191407l59.574219-29.746093c2.726562-1.359375 4.441406-4.152344 4.425781-7.199219v-56h-16zm-40 100.945312c0 8.835938-7.164062 16-16 16s-16-7.164062-16-16 7.164062-16 16-16 16 7.164062 16 16zm0 0"/><path d="m160 365.691406v-77.191406h-16v80c0 1.816406.617188 3.582031 1.753906 5l30.246094 37.808594v61.191406h16v-64c0-1.816406-.617188-3.582031-1.753906-5zm0 0"/><path d="m384 384.5c-13.097656.023438-24.859375 8.03125-29.6875 20.207031l-34.3125-17.152343v-99.054688h-16v104c-.015625 3.046875 1.699219 5.839844 4.425781 7.199219l44.101563 22.046875c2.8125 16.730468 18.207031 28.34375 35.0625 26.460937 16.859375-1.886719 29.304687-16.617187 28.347656-33.554687-.953125-16.933594-14.976562-30.171875-31.9375-30.152344zm0 48c-8.835938 0-16-7.164062-16-16s7.164062-16 16-16 16 7.164062 16 16-7.164062 16-16 16zm0 0"/><path d="m477 354.253906-37.390625-29.914062c.210937-1.269532.339844-2.554688.390625-3.839844.164062-15.859375-11.199219-29.496094-26.832031-32.195312-15.628907-2.703126-30.910157 6.332031-36.074219 21.328124-5.167969 14.996094 1.304688 31.527344 15.28125 39.027344s31.328125 3.753906 40.96875-8.839844l30.65625 24.519532v108.160156h16v-112c0-2.429688-1.101562-4.730469-3-6.246094zm-69-17.753906c-8.835938 0-16-7.164062-16-16s7.164062-16 16-16 16 7.164062 16 16-7.164062 16-16 16zm0 0"/><path d="m284.441406 417.84375-34.402344-22.9375c10.375-7.046875 15.652344-19.523438 13.484376-31.878906-2.164063-12.351563-11.371094-22.289063-23.523438-25.390625v-49.136719h-16v49.136719c-15.070312 3.820312-25.179688 17.96875-23.90625 33.464843 1.273438 15.496094 13.558594 27.804688 29.050781 29.109376l42.855469 28.570312v43.71875h16v-48c0-2.675781-1.335938-5.171875-3.558594-6.65625zm-68.441406-49.34375c0-8.835938 7.164062-16 16-16s16 7.164062 16 16-7.164062 16-16 16-16-7.164062-16-16zm0 0"/></g></svg>